<svg id="visual" viewBox="0 0 900 600" width="900" height="600" xmlns="http://www.w3.org/2000/svg" xmlns:xlink="http://www.w3.org/1999/xlink" version="1.1"><rect x="0" y="0" width="900" height="600" fill="#892c01"></rect><path d="M293 0L286.3 25C279.7 50 266.3 100 270.3 150C274.3 200 295.7 250 302.7 300C309.7 350 302.3 400 289.3 450C276.3 500 257.7 550 248.3 575L239 600L0 600L0 575C0 550 0 500 0 450C0 400 0 350 0 300C0 250 0 200 0 150C0 100 0 50 0 25L0 0Z" fill="#001403" stroke-linecap="round" stroke-linejoin="miter"></path></svg>