<svg id="visual" viewBox="0 0 900 675" width="900" height="675" xmlns="http://www.w3.org/2000/svg" xmlns:xlink="http://www.w3.org/1999/xlink" version="1.1"><rect x="0" y="0" width="900" height="675" fill="#892c01"></rect><path d="M0 500L37.5 488.2C75 476.3 150 452.7 225 445.8C300 439 375 449 450 462.8C525 476.7 600 494.3 675 491.3C750 488.3 825 464.7 862.5 452.8L900 441L900 676L862.5 676C825 676 750 676 675 676C600 676 525 676 450 676C375 676 300 676 225 676C150 676 75 676 37.5 676L0 676Z" fill="#963f1a"></path><path d="M0 500L37.5 506.3C75 512.7 150 525.3 225 524.5C300 523.7 375 509.3 450 510.2C525 511 600 527 675 539.2C750 551.3 825 559.7 862.5 563.8L900 568L900 676L862.5 676C825 676 750 676 675 676C600 676 525 676 450 676C375 676 300 676 225 676C150 676 75 676 37.5 676L0 676Z" fill="#652000"></path><path d="M0 559L37.5 566.7C75 574.3 150 589.7 225 594.3C300 599 375 593 450 590.7C525 588.3 600 589.7 675 587C750 584.3 825 577.7 862.5 574.3L900 571L900 676L862.5 676C825 676 750 676 675 676C600 676 525 676 450 676C375 676 300 676 225 676C150 676 75 676 37.5 676L0 676Z" fill="#4a1a02"></path></svg>