<svg id="visual" viewBox="0 0 900 600" width="900" height="600" xmlns="http://www.w3.org/2000/svg" xmlns:xlink="http://www.w3.org/1999/xlink" version="1.1"><rect x="0" y="0" width="900" height="600" fill="#892c01"></rect><path d="M0 87L21.5 90.5C43 94 86 101 128.8 101C171.7 101 214.3 94 257.2 97.3C300 100.7 343 114.3 385.8 118.3C428.7 122.3 471.3 116.7 514.2 109C557 101.3 600 91.7 642.8 96.8C685.7 102 728.3 122 771.2 125.3C814 128.7 857 115.3 878.5 108.7L900 102L900 0L878.5 0C857 0 814 0 771.2 0C728.3 0 685.7 0 642.8 0C600 0 557 0 514.2 0C471.3 0 428.7 0 385.8 0C343 0 300 0 257.2 0C214.3 0 171.7 0 128.8 0C86 0 43 0 21.5 0L0 0Z" fill="#b05127"></path><path d="M0 103L21.5 102C43 101 86 99 128.8 94.5C171.7 90 214.3 83 257.2 75.5C300 68 343 60 385.8 60.3C428.7 60.7 471.3 69.3 514.2 76.2C557 83 600 88 642.8 91.5C685.7 95 728.3 97 771.2 93C814 89 857 79 878.5 74L900 69L900 0L878.5 0C857 0 814 0 771.2 0C728.3 0 685.7 0 642.8 0C600 0 557 0 514.2 0C471.3 0 428.7 0 385.8 0C343 0 300 0 257.2 0C214.3 0 171.7 0 128.8 0C86 0 43 0 21.5 0L0 0Z" fill="#892c01"></path><path d="M0 61L21.5 58.3C43 55.7 86 50.3 128.8 45.2C171.7 40 214.3 35 257.2 34.8C300 34.7 343 39.3 385.8 38.3C428.7 37.3 471.3 30.7 514.2 32.7C557 34.7 600 45.3 642.8 50.2C685.7 55 728.3 54 771.2 48.5C814 43 857 33 878.5 28L900 23L900 0L878.5 0C857 0 814 0 771.2 0C728.3 0 685.7 0 642.8 0C600 0 557 0 514.2 0C471.3 0 428.7 0 385.8 0C343 0 300 0 257.2 0C214.3 0 171.7 0 128.8 0C86 0 43 0 21.5 0L0 0Z" fill="#652107"></path></svg>