<svg id="visual" viewBox="0 0 3840 2160" width="3840" height="2160" xmlns="http://www.w3.org/2000/svg" xmlns:xlink="http://www.w3.org/1999/xlink" version="1.1"><rect x="0" y="0" width="3840" height="2160" fill="#892c01"></rect><path d="M0 1623L128 1647C256 1671 512 1719 768 1715.3C1024 1711.7 1280 1656.3 1536 1651.8C1792 1647.3 2048 1693.7 2304 1723C2560 1752.3 2816 1764.7 3072 1749.3C3328 1734 3584 1691 3712 1669.5L3840 1648L3840 2161L3712 2161C3584 2161 3328 2161 3072 2161C2816 2161 2560 2161 2304 2161C2048 2161 1792 2161 1536 2161C1280 2161 1024 2161 768 2161C512 2161 256 2161 128 2161L0 2161Z" fill="#652000"></path><path d="M0 1778L128 1762.2C256 1746.3 512 1714.7 768 1685.7C1024 1656.7 1280 1630.3 1536 1671.7C1792 1713 2048 1822 2304 1874.3C2560 1926.7 2816 1922.3 3072 1925.8C3328 1929.3 3584 1940.7 3712 1946.3L3840 1952L3840 2161L3712 2161C3584 2161 3328 2161 3072 2161C2816 2161 2560 2161 2304 2161C2048 2161 1792 2161 1536 2161C1280 2161 1024 2161 768 2161C512 2161 256 2161 128 2161L0 2161Z" fill="#610e14"></path><path d="M0 1954L128 1937.7C256 1921.3 512 1888.7 768 1862.3C1024 1836 1280 1816 1536 1805.2C1792 1794.3 2048 1792.7 2304 1816.3C2560 1840 2816 1889 3072 1873.5C3328 1858 3584 1778 3712 1738L3840 1698L3840 2161L3712 2161C3584 2161 3328 2161 3072 2161C2816 2161 2560 2161 2304 2161C2048 2161 1792 2161 1536 2161C1280 2161 1024 2161 768 2161C512 2161 256 2161 128 2161L0 2161Z" fill="#580220"></path><path d="M0 1996L128 1972.2C256 1948.3 512 1900.7 768 1897.5C1024 1894.3 1280 1935.7 1536 1965.7C1792 1995.7 2048 2014.3 2304 2010C2560 2005.7 2816 1978.3 3072 1939C3328 1899.7 3584 1848.3 3712 1822.7L3840 1797L3840 2161L3712 2161C3584 2161 3328 2161 3072 2161C2816 2161 2560 2161 2304 2161C2048 2161 1792 2161 1536 2161C1280 2161 1024 2161 768 2161C512 2161 256 2161 128 2161L0 2161Z" fill="#49002a"></path><path d="M0 1982L128 1993.7C256 2005.3 512 2028.7 768 2022.5C1024 2016.3 1280 1980.7 1536 1975.7C1792 1970.7 2048 1996.3 2304 2001C2560 2005.7 2816 1989.3 3072 1994.7C3328 2000 3584 2027 3712 2040.5L3840 2054L3840 2161L3712 2161C3584 2161 3328 2161 3072 2161C2816 2161 2560 2161 2304 2161C2048 2161 1792 2161 1536 2161C1280 2161 1024 2161 768 2161C512 2161 256 2161 128 2161L0 2161Z" fill="#330031"></path><path d="M0 2097L128 2090.8C256 2084.7 512 2072.3 768 2053.8C1024 2035.3 1280 2010.7 1536 2015.8C1792 2021 2048 2056 2304 2054C2560 2052 2816 2013 3072 2004.8C3328 1996.7 3584 2019.3 3712 2030.7L3840 2042L3840 2161L3712 2161C3584 2161 3328 2161 3072 2161C2816 2161 2560 2161 2304 2161C2048 2161 1792 2161 1536 2161C1280 2161 1024 2161 768 2161C512 2161 256 2161 128 2161L0 2161Z" fill="#160035"></path></svg>