<svg id="visual" viewBox="0 0 3840 2160" width="3840" height="2160" xmlns="http://www.w3.org/2000/svg" xmlns:xlink="http://www.w3.org/1999/xlink" version="1.1"><rect x="0" y="0" width="3840" height="2160" fill="#892c01"></rect><defs><linearGradient id="grad1_0" x1="43.8%" y1="0%" x2="100%" y2="100%"><stop offset="14.444444444444446%" stop-color="#892c01" stop-opacity="1"></stop><stop offset="85.55555555555554%" stop-color="#892c01" stop-opacity="1"></stop></linearGradient></defs><defs><linearGradient id="grad2_0" x1="0%" y1="0%" x2="56.3%" y2="100%"><stop offset="14.444444444444446%" stop-color="#892c01" stop-opacity="1"></stop><stop offset="85.55555555555554%" stop-color="#892c01" stop-opacity="1"></stop></linearGradient></defs><g transform="translate(3840, 0)"><path d="M0 756C-83.4 710.3 -166.8 664.5 -263.3 635.6C-359.8 606.7 -469.3 594.6 -534.6 534.6C-599.9 474.5 -620.9 366.5 -650.4 269.4C-679.9 172.3 -718 86.2 -756 0L0 0Z" fill="#160035"></path></g><g transform="translate(0, 2160)"><path d="M0 -756C87.8 -719.9 175.5 -683.7 270.6 -653.2C365.6 -622.6 467.9 -597.7 534.6 -534.6C601.3 -471.5 632.4 -370.2 663.3 -274.8C694.3 -179.3 725.2 -89.7 756 0L0 0Z" fill="#160035"></path></g></svg>