<svg id="visual" viewBox="0 0 900 600" width="900" height="600" xmlns="http://www.w3.org/2000/svg" xmlns:xlink="http://www.w3.org/1999/xlink" version="1.1"><rect x="0" y="0" width="900" height="600" fill="#892c01"></rect><path d="M0 452L21.5 446.3C43 440.7 86 429.3 128.8 429.5C171.7 429.7 214.3 441.3 257.2 435.5C300 429.7 343 406.3 385.8 399.7C428.7 393 471.3 403 514.2 416C557 429 600 445 642.8 436.3C685.7 427.7 728.3 394.3 771.2 388.7C814 383 857 405 878.5 416L900 427L900 601L878.5 601C857 601 814 601 771.2 601C728.3 601 685.7 601 642.8 601C600 601 557 601 514.2 601C471.3 601 428.7 601 385.8 601C343 601 300 601 257.2 601C214.3 601 171.7 601 128.8 601C86 601 43 601 21.5 601L0 601Z" fill="#b05127"></path><path d="M0 426L21.5 427.7C43 429.3 86 432.7 128.8 440.2C171.7 447.7 214.3 459.3 257.2 471.8C300 484.3 343 497.7 385.8 497C428.7 496.3 471.3 481.7 514.2 470.3C557 459 600 451 642.8 445.3C685.7 439.7 728.3 436.3 771.2 442.8C814 449.3 857 465.7 878.5 473.8L900 482L900 601L878.5 601C857 601 814 601 771.2 601C728.3 601 685.7 601 642.8 601C600 601 557 601 514.2 601C471.3 601 428.7 601 385.8 601C343 601 300 601 257.2 601C214.3 601 171.7 601 128.8 601C86 601 43 601 21.5 601L0 601Z" fill="#892c01"></path><path d="M0 495L21.5 499.5C43 504 86 513 128.8 521.7C171.7 530.3 214.3 538.7 257.2 538.8C300 539 343 531 385.8 532.8C428.7 534.7 471.3 546.3 514.2 543.3C557 540.3 600 522.7 642.8 514.5C685.7 506.3 728.3 507.7 771.2 516.7C814 525.7 857 542.3 878.5 550.7L900 559L900 601L878.5 601C857 601 814 601 771.2 601C728.3 601 685.7 601 642.8 601C600 601 557 601 514.2 601C471.3 601 428.7 601 385.8 601C343 601 300 601 257.2 601C214.3 601 171.7 601 128.8 601C86 601 43 601 21.5 601L0 601Z" fill="#652107"></path></svg>