<svg id="visual" viewBox="0 0 3840 2160" width="3840" height="2160" xmlns="http://www.w3.org/2000/svg" xmlns:xlink="http://www.w3.org/1999/xlink" version="1.1"><rect x="0" y="0" width="3840" height="2160" fill="#892c01"></rect><path d="M0 231L64 226.3C128 221.7 256 212.3 384 230C512 247.7 640 292.3 768 303.7C896 315 1024 293 1152 290C1280 287 1408 303 1536 302.2C1664 301.3 1792 283.7 1920 267.7C2048 251.7 2176 237.3 2304 251.7C2432 266 2560 309 2688 322.3C2816 335.7 2944 319.3 3072 295.8C3200 272.3 3328 241.7 3456 220.8C3584 200 3712 189 3776 183.5L3840 178L3840 0L3776 0C3712 0 3584 0 3456 0C3328 0 3200 0 3072 0C2944 0 2816 0 2688 0C2560 0 2432 0 2304 0C2176 0 2048 0 1920 0C1792 0 1664 0 1536 0C1408 0 1280 0 1152 0C1024 0 896 0 768 0C640 0 512 0 384 0C256 0 128 0 64 0L0 0Z" fill="#4a1a02"></path><path d="M0 165L64 156.7C128 148.3 256 131.7 384 145.2C512 158.7 640 202.3 768 218.3C896 234.3 1024 222.7 1152 218.3C1280 214 1408 217 1536 225.2C1664 233.3 1792 246.7 1920 231.2C2048 215.7 2176 171.3 2304 156.3C2432 141.3 2560 155.7 2688 171.3C2816 187 2944 204 3072 193.8C3200 183.7 3328 146.3 3456 152.3C3584 158.3 3712 207.7 3776 232.3L3840 257L3840 0L3776 0C3712 0 3584 0 3456 0C3328 0 3200 0 3072 0C2944 0 2816 0 2688 0C2560 0 2432 0 2304 0C2176 0 2048 0 1920 0C1792 0 1664 0 1536 0C1408 0 1280 0 1152 0C1024 0 896 0 768 0C640 0 512 0 384 0C256 0 128 0 64 0L0 0Z" fill="#652000"></path><path d="M0 137L64 123.7C128 110.3 256 83.7 384 78.3C512 73 640 89 768 107.2C896 125.3 1024 145.7 1152 144.3C1280 143 1408 120 1536 108.3C1664 96.7 1792 96.3 1920 97.3C2048 98.3 2176 100.7 2304 101.8C2432 103 2560 103 2688 110.8C2816 118.7 2944 134.3 3072 144.2C3200 154 3328 158 3456 142C3584 126 3712 90 3776 72L3840 54L3840 0L3776 0C3712 0 3584 0 3456 0C3328 0 3200 0 3072 0C2944 0 2816 0 2688 0C2560 0 2432 0 2304 0C2176 0 2048 0 1920 0C1792 0 1664 0 1536 0C1408 0 1280 0 1152 0C1024 0 896 0 768 0C640 0 512 0 384 0C256 0 128 0 64 0L0 0Z" fill="#963f1a"></path></svg>