<svg id="visual" viewBox="0 0 1920 1080" width="1920" height="1080" xmlns="http://www.w3.org/2000/svg" xmlns:xlink="http://www.w3.org/1999/xlink" version="1.1"><rect x="0" y="0" width="1920" height="1080" fill="#892c01"></rect><g transform="translate(914.093061767614 419.23204166494247)"><path d="M262.1 -361.2C367.8 -339.9 500.9 -314.7 562.4 -239.4C623.9 -164.1 613.9 -38.6 572.3 65.2C530.8 169 457.7 251.2 389.6 347.3C321.4 443.5 258.2 553.8 156.1 627.7C53.9 701.7 -87.1 739.4 -170.7 673C-254.2 606.5 -280.1 435.9 -321.1 317.7C-362.1 199.5 -418.1 133.9 -459.9 47.3C-501.6 -39.3 -529.2 -146.8 -505.4 -244.1C-481.6 -341.4 -406.5 -428.5 -313.7 -455.7C-220.9 -482.8 -110.5 -449.9 -16.1 -424.8C78.2 -399.7 156.4 -382.4 262.1 -361.2" fill="#0c001e"></path></g></svg>