<svg id="visual" viewBox="0 0 3840 2160" width="3840" height="2160" xmlns="http://www.w3.org/2000/svg" xmlns:xlink="http://www.w3.org/1999/xlink" version="1.1"><rect x="0" y="0" width="3840" height="2160" fill="#160035"></rect><defs><linearGradient id="grad1_0" x1="43.8%" y1="0%" x2="100%" y2="100%"><stop offset="14.444444444444446%" stop-color="#160035" stop-opacity="1"></stop><stop offset="85.55555555555554%" stop-color="#160035" stop-opacity="1"></stop></linearGradient></defs><defs><linearGradient id="grad2_0" x1="0%" y1="0%" x2="56.3%" y2="100%"><stop offset="14.444444444444446%" stop-color="#160035" stop-opacity="1"></stop><stop offset="85.55555555555554%" stop-color="#160035" stop-opacity="1"></stop></linearGradient></defs><g transform="translate(3840, 0)"><path d="M0 972C-138.8 970.7 -277.6 969.4 -372 898C-466.3 826.6 -516.2 685.1 -584.8 584.8C-653.4 484.5 -740.7 425.4 -808.4 334.8C-876.1 244.3 -924 122.1 -972 0L0 0Z" fill="#892c01"></path></g><g transform="translate(0, 2160)"><path d="M0 -972C121.1 -923.3 242.2 -874.6 335.2 -809.3C428.2 -744 493.1 -662.1 593.3 -593.3C693.5 -524.4 829 -468.7 898 -372C967 -275.3 969.5 -137.6 972 0L0 0Z" fill="#892c01"></path></g></svg>