<svg id="visual" viewBox="0 0 2160 1440" width="2160" height="1440" xmlns="http://www.w3.org/2000/svg" xmlns:xlink="http://www.w3.org/1999/xlink" version="1.1"><rect x="0" y="0" width="2160" height="1440" fill="#892c01"></rect><g transform="translate(975.7159581969213 714.987309300293)"><path d="M382.2 -625.2C512.4 -511 646.9 -433.9 737.8 -313.8C828.8 -193.6 876.1 -30.4 850.8 120C825.5 270.4 727.5 407.9 605 492.6C482.4 577.3 335.3 609.1 179.7 690.9C24 772.7 -140.1 904.5 -262.9 876.9C-385.7 849.3 -467.2 662.4 -534 506.5C-600.7 350.7 -652.7 226 -648.8 106.8C-644.8 -12.3 -584.8 -126 -516 -218.6C-447.2 -311.2 -369.6 -382.8 -282.1 -516.5C-194.6 -650.2 -97.3 -846.1 14.3 -868.4C126 -890.7 251.9 -739.4 382.2 -625.2" fill="#0c001e"></path></g></svg>