<svg id="visual" viewBox="0 0 3840 2160" width="3840" height="2160" xmlns="http://www.w3.org/2000/svg" xmlns:xlink="http://www.w3.org/1999/xlink" version="1.1"><rect x="0" y="0" width="3840" height="2160" fill="#892c01"></rect><path d="M0 1706L71.2 1711.3C142.3 1716.7 284.7 1727.3 426.8 1706C569 1684.7 711 1631.3 853.2 1608.5C995.3 1585.7 1137.7 1593.3 1280 1595.2C1422.3 1597 1564.7 1593 1706.8 1608.8C1849 1624.7 1991 1660.3 2133.2 1662.8C2275.3 1665.3 2417.7 1634.7 2560 1628.8C2702.3 1623 2844.7 1642 2986.8 1650.3C3129 1658.7 3271 1656.3 3413.2 1655.7C3555.3 1655 3697.7 1656 3768.8 1656.5L3840 1657L3840 2161L3768.8 2161C3697.7 2161 3555.3 2161 3413.2 2161C3271 2161 3129 2161 2986.8 2161C2844.7 2161 2702.3 2161 2560 2161C2417.7 2161 2275.3 2161 2133.2 2161C1991 2161 1849 2161 1706.8 2161C1564.7 2161 1422.3 2161 1280 2161C1137.7 2161 995.3 2161 853.2 2161C711 2161 569 2161 426.8 2161C284.7 2161 142.3 2161 71.2 2161L0 2161Z" fill="#4a1a02"></path><path d="M0 1715L71.2 1741.3C142.3 1767.7 284.7 1820.3 426.8 1833.8C569 1847.3 711 1821.7 853.2 1795C995.3 1768.3 1137.7 1740.7 1280 1721.2C1422.3 1701.7 1564.7 1690.3 1706.8 1686.2C1849 1682 1991 1685 2133.2 1710C2275.3 1735 2417.7 1782 2560 1786.2C2702.3 1790.3 2844.7 1751.7 2986.8 1731.8C3129 1712 3271 1711 3413.2 1716.2C3555.3 1721.3 3697.7 1732.7 3768.8 1738.3L3840 1744L3840 2161L3768.8 2161C3697.7 2161 3555.3 2161 3413.2 2161C3271 2161 3129 2161 2986.8 2161C2844.7 2161 2702.3 2161 2560 2161C2417.7 2161 2275.3 2161 2133.2 2161C1991 2161 1849 2161 1706.8 2161C1564.7 2161 1422.3 2161 1280 2161C1137.7 2161 995.3 2161 853.2 2161C711 2161 569 2161 426.8 2161C284.7 2161 142.3 2161 71.2 2161L0 2161Z" fill="#652000"></path><path d="M0 1903L71.2 1898.7C142.3 1894.3 284.7 1885.7 426.8 1889.5C569 1893.3 711 1909.7 853.2 1930.8C995.3 1952 1137.7 1978 1280 1989.2C1422.3 2000.3 1564.7 1996.7 1706.8 1978.8C1849 1961 1991 1929 2133.2 1908.3C2275.3 1887.7 2417.7 1878.3 2560 1873.3C2702.3 1868.3 2844.7 1867.7 2986.8 1873.7C3129 1879.7 3271 1892.3 3413.2 1903.3C3555.3 1914.3 3697.7 1923.7 3768.8 1928.3L3840 1933L3840 2161L3768.8 2161C3697.7 2161 3555.3 2161 3413.2 2161C3271 2161 3129 2161 2986.8 2161C2844.7 2161 2702.3 2161 2560 2161C2417.7 2161 2275.3 2161 2133.2 2161C1991 2161 1849 2161 1706.8 2161C1564.7 2161 1422.3 2161 1280 2161C1137.7 2161 995.3 2161 853.2 2161C711 2161 569 2161 426.8 2161C284.7 2161 142.3 2161 71.2 2161L0 2161Z" fill="#963f1a"></path></svg>