<svg id="visual" viewBox="0 0 3840 2160" width="3840" height="2160" xmlns="http://www.w3.org/2000/svg" xmlns:xlink="http://www.w3.org/1999/xlink" version="1.1"><rect x="0" y="0" width="3840" height="2160" fill="#892c01"></rect><path d="M0 161L91.5 167.2C183 173.3 366 185.7 548.8 197.5C731.7 209.3 914.3 220.7 1097.2 240.3C1280 260 1463 288 1645.8 296.2C1828.7 304.3 2011.3 292.7 2194.2 281C2377 269.3 2560 257.7 2742.8 255C2925.7 252.3 3108.3 258.7 3291.2 265.2C3474 271.7 3657 278.3 3748.5 281.7L3840 285L3840 0L3748.5 0C3657 0 3474 0 3291.2 0C3108.3 0 2925.7 0 2742.8 0C2560 0 2377 0 2194.2 0C2011.3 0 1828.7 0 1645.8 0C1463 0 1280 0 1097.2 0C914.3 0 731.7 0 548.8 0C366 0 183 0 91.5 0L0 0Z" fill="#652107"></path><path d="M0 186L91.5 183.2C183 180.3 366 174.7 548.8 176.3C731.7 178 914.3 187 1097.2 187.8C1280 188.7 1463 181.3 1645.8 178C1828.7 174.7 2011.3 175.3 2194.2 162.3C2377 149.3 2560 122.7 2742.8 120.2C2925.7 117.7 3108.3 139.3 3291.2 136.3C3474 133.3 3657 105.7 3748.5 91.8L3840 78L3840 0L3748.5 0C3657 0 3474 0 3291.2 0C3108.3 0 2925.7 0 2742.8 0C2560 0 2377 0 2194.2 0C2011.3 0 1828.7 0 1645.8 0C1463 0 1280 0 1097.2 0C914.3 0 731.7 0 548.8 0C366 0 183 0 91.5 0L0 0Z" fill="#b05127"></path></svg>