<svg id="visual" viewBox="0 0 900 600" width="900" height="600" xmlns="http://www.w3.org/2000/svg" xmlns:xlink="http://www.w3.org/1999/xlink" version="1.1"><rect x="0" y="0" width="900" height="600" fill="#892c01"></rect><path d="M0 428L25 432.5C50 437 100 446 150 442.2C200 438.3 250 421.7 300 416.5C350 411.3 400 417.7 450 426.5C500 435.3 550 446.7 600 454C650 461.3 700 464.7 750 458.3C800 452 850 436 875 428L900 420L900 601L875 601C850 601 800 601 750 601C700 601 650 601 600 601C550 601 500 601 450 601C400 601 350 601 300 601C250 601 200 601 150 601C100 601 50 601 25 601L0 601Z" fill="#160035" stroke-linecap="round" stroke-linejoin="miter"></path></svg>