<svg id="visual" viewBox="0 0 900 600" width="900" height="600" xmlns="http://www.w3.org/2000/svg" xmlns:xlink="http://www.w3.org/1999/xlink" version="1.1"><rect x="0" y="0" width="900" height="600" fill="#892c01"></rect><defs><linearGradient id="grad1_0" x1="33.3%" y1="0%" x2="100%" y2="100%"><stop offset="20%" stop-color="#892c01" stop-opacity="1"></stop><stop offset="80%" stop-color="#892c01" stop-opacity="1"></stop></linearGradient></defs><defs><linearGradient id="grad2_0" x1="0%" y1="0%" x2="66.7%" y2="100%"><stop offset="20%" stop-color="#892c01" stop-opacity="1"></stop><stop offset="80%" stop-color="#892c01" stop-opacity="1"></stop></linearGradient></defs><g transform="translate(900, 0)"><path d="M0 189.3C-27.4 174.8 -54.8 160.3 -84.5 146.4C-114.2 132.4 -146.1 119 -163.9 94.6C-181.8 70.3 -185.5 35.2 -189.3 0L0 0Z" fill="#0c001e"></path></g><g transform="translate(0, 600)"><path d="M0 -189.3C35.3 -185.6 70.6 -181.9 94.6 -163.9C118.7 -146 131.6 -113.7 145.5 -84C159.4 -54.3 174.3 -27.1 189.3 0L0 0Z" fill="#0c001e"></path></g></svg>