<svg id="visual" viewBox="0 0 2160 1440" width="2160" height="1440" xmlns="http://www.w3.org/2000/svg" xmlns:xlink="http://www.w3.org/1999/xlink" version="1.1"><rect x="0" y="0" width="2160" height="1440" fill="#892c01"></rect><path d="M0 232L51.5 226.8C103 221.7 206 211.3 308.8 198.5C411.7 185.7 514.3 170.3 617.2 170.5C720 170.7 823 186.3 925.8 183.2C1028.7 180 1131.3 158 1234.2 159.3C1337 160.7 1440 185.3 1542.8 189.3C1645.7 193.3 1748.3 176.7 1851.2 164.8C1954 153 2057 146 2108.5 142.5L2160 139L2160 0L2108.5 0C2057 0 1954 0 1851.2 0C1748.3 0 1645.7 0 1542.8 0C1440 0 1337 0 1234.2 0C1131.3 0 1028.7 0 925.8 0C823 0 720 0 617.2 0C514.3 0 411.7 0 308.8 0C206 0 103 0 51.5 0L0 0Z" fill="#652107"></path><path d="M0 120L51.5 117.2C103 114.3 206 108.7 308.8 114.5C411.7 120.3 514.3 137.7 617.2 133.8C720 130 823 105 925.8 106.3C1028.7 107.7 1131.3 135.3 1234.2 146.7C1337 158 1440 153 1542.8 140.3C1645.7 127.7 1748.3 107.3 1851.2 104.8C1954 102.3 2057 117.7 2108.5 125.3L2160 133L2160 0L2108.5 0C2057 0 1954 0 1851.2 0C1748.3 0 1645.7 0 1542.8 0C1440 0 1337 0 1234.2 0C1131.3 0 1028.7 0 925.8 0C823 0 720 0 617.2 0C514.3 0 411.7 0 308.8 0C206 0 103 0 51.5 0L0 0Z" fill="#892c01"></path><path d="M0 39L51.5 39.8C103 40.7 206 42.3 308.8 45C411.7 47.7 514.3 51.3 617.2 52.2C720 53 823 51 925.8 57.3C1028.7 63.7 1131.3 78.3 1234.2 82.7C1337 87 1440 81 1542.8 74.8C1645.7 68.7 1748.3 62.3 1851.2 62.8C1954 63.3 2057 70.7 2108.5 74.3L2160 78L2160 0L2108.5 0C2057 0 1954 0 1851.2 0C1748.3 0 1645.7 0 1542.8 0C1440 0 1337 0 1234.2 0C1131.3 0 1028.7 0 925.8 0C823 0 720 0 617.2 0C514.3 0 411.7 0 308.8 0C206 0 103 0 51.5 0L0 0Z" fill="#b05127"></path></svg>