<svg id="visual" viewBox="0 0 1920 1080" width="1920" height="1080" xmlns="http://www.w3.org/2000/svg" xmlns:xlink="http://www.w3.org/1999/xlink" version="1.1"><rect x="0" y="0" width="1920" height="1080" fill="#892c01"></rect><path d="M625 0L610.7 45C596.3 90 567.7 180 576.2 270C584.7 360 630.3 450 645.2 540C660 630 644 720 616.2 810C588.3 900 548.7 990 528.8 1035L509 1080L0 1080L0 1035C0 990 0 900 0 810C0 720 0 630 0 540C0 450 0 360 0 270C0 180 0 90 0 45L0 0Z" fill="#001403" stroke-linecap="round" stroke-linejoin="miter"></path></svg>