<svg id="visual" viewBox="0 0 2160 1440" width="2160" height="1440" xmlns="http://www.w3.org/2000/svg" xmlns:xlink="http://www.w3.org/1999/xlink" version="1.1"><rect x="0" y="0" width="2160" height="1440" fill="#892c01"></rect><path d="M703 0L686.8 60C670.7 120 638.3 240 647.8 360C657.3 480 708.7 600 725.5 720C742.3 840 724.7 960 693.3 1080C662 1200 617 1320 594.5 1380L572 1440L0 1440L0 1380C0 1320 0 1200 0 1080C0 960 0 840 0 720C0 600 0 480 0 360C0 240 0 120 0 60L0 0Z" fill="#001403" stroke-linecap="round" stroke-linejoin="miter"></path></svg>