<svg id="visual" viewBox="0 0 3840 2160" width="3840" height="2160" xmlns="http://www.w3.org/2000/svg" xmlns:xlink="http://www.w3.org/1999/xlink" version="1.1"><path d="M0 908L106.7 904.5C213.3 901 426.7 894 640 897.7C853.3 901.3 1066.7 915.7 1280 904.8C1493.3 894 1706.7 858 1920 832.8C2133.3 807.7 2346.7 793.3 2560 811.3C2773.3 829.3 2986.7 879.7 3200 883.2C3413.3 886.7 3626.7 843.3 3733.3 821.7L3840 800L3840 0L3733.3 0C3626.7 0 3413.3 0 3200 0C2986.7 0 2773.3 0 2560 0C2346.7 0 2133.3 0 1920 0C1706.7 0 1493.3 0 1280 0C1066.7 0 853.3 0 640 0C426.7 0 213.3 0 106.7 0L0 0Z" fill="#652107"></path><path d="M0 1491L106.7 1476.7C213.3 1462.3 426.7 1433.7 640 1415.7C853.3 1397.7 1066.7 1390.3 1280 1365.2C1493.3 1340 1706.7 1297 1920 1300.7C2133.3 1304.3 2346.7 1354.7 2560 1387C2773.3 1419.3 2986.7 1433.7 3200 1426.5C3413.3 1419.3 3626.7 1390.7 3733.3 1376.3L3840 1362L3840 798L3733.3 819.7C3626.7 841.3 3413.3 884.7 3200 881.2C2986.7 877.7 2773.3 827.3 2560 809.3C2346.7 791.3 2133.3 805.7 1920 830.8C1706.7 856 1493.3 892 1280 902.8C1066.7 913.7 853.3 899.3 640 895.7C426.7 892 213.3 899 106.7 902.5L0 906Z" fill="#892c01"></path><path d="M0 2161L106.7 2161C213.3 2161 426.7 2161 640 2161C853.3 2161 1066.7 2161 1280 2161C1493.3 2161 1706.7 2161 1920 2161C2133.3 2161 2346.7 2161 2560 2161C2773.3 2161 2986.7 2161 3200 2161C3413.3 2161 3626.7 2161 3733.3 2161L3840 2161L3840 1360L3733.3 1374.3C3626.7 1388.7 3413.3 1417.3 3200 1424.5C2986.7 1431.7 2773.3 1417.3 2560 1385C2346.7 1352.7 2133.3 1302.3 1920 1298.7C1706.7 1295 1493.3 1338 1280 1363.2C1066.7 1388.3 853.3 1395.7 640 1413.7C426.7 1431.7 213.3 1460.3 106.7 1474.7L0 1489Z" fill="#b05127"></path></svg>