<svg id="visual" viewBox="0 0 3840 2560" width="3840" height="2560" xmlns="http://www.w3.org/2000/svg" xmlns:xlink="http://www.w3.org/1999/xlink" version="1.1"><rect x="0" y="0" width="3840" height="2560" fill="#892c01"></rect><path d="M1249 0L1220.3 106.7C1191.7 213.3 1134.3 426.7 1151.3 640C1168.3 853.3 1259.7 1066.7 1289.3 1280C1319 1493.3 1287 1706.7 1231.2 1920C1175.3 2133.3 1095.7 2346.7 1055.8 2453.3L1016 2560L0 2560L0 2453.3C0 2346.7 0 2133.3 0 1920C0 1706.7 0 1493.3 0 1280C0 1066.7 0 853.3 0 640C0 426.7 0 213.3 0 106.7L0 0Z" fill="#001403" stroke-linecap="round" stroke-linejoin="miter"></path></svg>