<svg id="visual" viewBox="0 0 3840 2160" width="3840" height="2160" xmlns="http://www.w3.org/2000/svg" xmlns:xlink="http://www.w3.org/1999/xlink" version="1.1"><rect x="0" y="0" width="3840" height="2160" fill="#892c01"></rect><path d="M0 1856L128 1868.7C256 1881.3 512 1906.7 768 1909.5C1024 1912.3 1280 1892.7 1536 1869C1792 1845.3 2048 1817.7 2304 1799.2C2560 1780.7 2816 1771.3 3072 1798.2C3328 1825 3584 1888 3712 1919.5L3840 1951L3840 2161L3712 2161C3584 2161 3328 2161 3072 2161C2816 2161 2560 2161 2304 2161C2048 2161 1792 2161 1536 2161C1280 2161 1024 2161 768 2161C512 2161 256 2161 128 2161L0 2161Z" fill="#652000"></path><path d="M0 1754L128 1782C256 1810 512 1866 768 1884.5C1024 1903 1280 1884 1536 1862.2C1792 1840.3 2048 1815.7 2304 1802.3C2560 1789 2816 1787 3072 1807.2C3328 1827.3 3584 1869.7 3712 1890.8L3840 1912L3840 2161L3712 2161C3584 2161 3328 2161 3072 2161C2816 2161 2560 2161 2304 2161C2048 2161 1792 2161 1536 2161C1280 2161 1024 2161 768 2161C512 2161 256 2161 128 2161L0 2161Z" fill="#610e14"></path><path d="M0 1975L128 1969C256 1963 512 1951 768 1956.3C1024 1961.7 1280 1984.3 1536 1991.7C1792 1999 2048 1991 2304 1966.8C2560 1942.7 2816 1902.3 3072 1876.2C3328 1850 3584 1838 3712 1832L3840 1826L3840 2161L3712 2161C3584 2161 3328 2161 3072 2161C2816 2161 2560 2161 2304 2161C2048 2161 1792 2161 1536 2161C1280 2161 1024 2161 768 2161C512 2161 256 2161 128 2161L0 2161Z" fill="#580220"></path><path d="M0 1994L128 1977.7C256 1961.3 512 1928.7 768 1931.5C1024 1934.3 1280 1972.7 1536 1998.3C1792 2024 2048 2037 2304 2026C2560 2015 2816 1980 3072 1975.8C3328 1971.7 3584 1998.3 3712 2011.7L3840 2025L3840 2161L3712 2161C3584 2161 3328 2161 3072 2161C2816 2161 2560 2161 2304 2161C2048 2161 1792 2161 1536 2161C1280 2161 1024 2161 768 2161C512 2161 256 2161 128 2161L0 2161Z" fill="#49002a"></path><path d="M0 2049L128 2039.5C256 2030 512 2011 768 2014.3C1024 2017.7 1280 2043.3 1536 2036.7C1792 2030 2048 1991 2304 1985.5C2560 1980 2816 2008 3072 2027.7C3328 2047.3 3584 2058.7 3712 2064.3L3840 2070L3840 2161L3712 2161C3584 2161 3328 2161 3072 2161C2816 2161 2560 2161 2304 2161C2048 2161 1792 2161 1536 2161C1280 2161 1024 2161 768 2161C512 2161 256 2161 128 2161L0 2161Z" fill="#330031"></path><path d="M0 2100L128 2094.2C256 2088.3 512 2076.7 768 2065C1024 2053.3 1280 2041.7 1536 2039.7C1792 2037.7 2048 2045.3 2304 2051.5C2560 2057.7 2816 2062.3 3072 2063.5C3328 2064.7 3584 2062.3 3712 2061.2L3840 2060L3840 2161L3712 2161C3584 2161 3328 2161 3072 2161C2816 2161 2560 2161 2304 2161C2048 2161 1792 2161 1536 2161C1280 2161 1024 2161 768 2161C512 2161 256 2161 128 2161L0 2161Z" fill="#160035"></path></svg>