<svg id="visual" viewBox="0 0 3840 2160" width="3840" height="2160" xmlns="http://www.w3.org/2000/svg" xmlns:xlink="http://www.w3.org/1999/xlink" version="1.1"><rect x="0" y="0" width="3840" height="2160" fill="#892c01"></rect><path d="M0 1530L91.5 1501.7C183 1473.3 366 1416.7 548.8 1421.5C731.7 1426.3 914.3 1492.7 1097.2 1478C1280 1463.3 1463 1367.7 1645.8 1348C1828.7 1328.3 2011.3 1384.7 2194.2 1405.2C2377 1425.7 2560 1410.3 2742.8 1433.8C2925.7 1457.3 3108.3 1519.7 3291.2 1512.7C3474 1505.7 3657 1429.3 3748.5 1391.2L3840 1353L3840 2161L3748.5 2161C3657 2161 3474 2161 3291.2 2161C3108.3 2161 2925.7 2161 2742.8 2161C2560 2161 2377 2161 2194.2 2161C2011.3 2161 1828.7 2161 1645.8 2161C1463 2161 1280 2161 1097.2 2161C914.3 2161 731.7 2161 548.8 2161C366 2161 183 2161 91.5 2161L0 2161Z" fill="#652000"></path><path d="M0 1730L91.5 1702.3C183 1674.7 366 1619.3 548.8 1615.3C731.7 1611.3 914.3 1658.7 1097.2 1675.8C1280 1693 1463 1680 1645.8 1644.5C1828.7 1609 2011.3 1551 2194.2 1553.2C2377 1555.3 2560 1617.7 2742.8 1616.5C2925.7 1615.3 3108.3 1550.7 3291.2 1536.5C3474 1522.3 3657 1558.7 3748.5 1576.8L3840 1595L3840 2161L3748.5 2161C3657 2161 3474 2161 3291.2 2161C3108.3 2161 2925.7 2161 2742.8 2161C2560 2161 2377 2161 2194.2 2161C2011.3 2161 1828.7 2161 1645.8 2161C1463 2161 1280 2161 1097.2 2161C914.3 2161 731.7 2161 548.8 2161C366 2161 183 2161 91.5 2161L0 2161Z" fill="#5f0a17"></path><path d="M0 1655L91.5 1665.8C183 1676.7 366 1698.3 548.8 1722C731.7 1745.7 914.3 1771.3 1097.2 1756C1280 1740.7 1463 1684.3 1645.8 1657.3C1828.7 1630.3 2011.3 1632.7 2194.2 1632C2377 1631.3 2560 1627.7 2742.8 1642.3C2925.7 1657 3108.3 1690 3291.2 1718.5C3474 1747 3657 1771 3748.5 1783L3840 1795L3840 2161L3748.5 2161C3657 2161 3474 2161 3291.2 2161C3108.3 2161 2925.7 2161 2742.8 2161C2560 2161 2377 2161 2194.2 2161C2011.3 2161 1828.7 2161 1645.8 2161C1463 2161 1280 2161 1097.2 2161C914.3 2161 731.7 2161 548.8 2161C366 2161 183 2161 91.5 2161L0 2161Z" fill="#510025"></path><path d="M0 1866L91.5 1878C183 1890 366 1914 548.8 1892.3C731.7 1870.7 914.3 1803.3 1097.2 1778C1280 1752.7 1463 1769.3 1645.8 1796.3C1828.7 1823.3 2011.3 1860.7 2194.2 1865.3C2377 1870 2560 1842 2742.8 1817.3C2925.7 1792.7 3108.3 1771.3 3291.2 1763C3474 1754.7 3657 1759.3 3748.5 1761.7L3840 1764L3840 2161L3748.5 2161C3657 2161 3474 2161 3291.2 2161C3108.3 2161 2925.7 2161 2742.8 2161C2560 2161 2377 2161 2194.2 2161C2011.3 2161 1828.7 2161 1645.8 2161C1463 2161 1280 2161 1097.2 2161C914.3 2161 731.7 2161 548.8 2161C366 2161 183 2161 91.5 2161L0 2161Z" fill="#39002f"></path><path d="M0 1962L91.5 1977.7C183 1993.3 366 2024.7 548.8 2034.7C731.7 2044.7 914.3 2033.3 1097.2 2031.8C1280 2030.3 1463 2038.7 1645.8 2031C1828.7 2023.3 2011.3 1999.7 2194.2 1990.2C2377 1980.7 2560 1985.3 2742.8 1995.5C2925.7 2005.7 3108.3 2021.3 3291.2 2021.3C3474 2021.3 3657 2005.7 3748.5 1997.8L3840 1990L3840 2161L3748.5 2161C3657 2161 3474 2161 3291.2 2161C3108.3 2161 2925.7 2161 2742.8 2161C2560 2161 2377 2161 2194.2 2161C2011.3 2161 1828.7 2161 1645.8 2161C1463 2161 1280 2161 1097.2 2161C914.3 2161 731.7 2161 548.8 2161C366 2161 183 2161 91.5 2161L0 2161Z" fill="#160035"></path></svg>