<svg id="visual" viewBox="0 0 1920 1080" width="1920" height="1080" xmlns="http://www.w3.org/2000/svg" xmlns:xlink="http://www.w3.org/1999/xlink" version="1.1"><rect x="0" y="0" width="1920" height="1080" fill="#892c01"></rect><g transform="translate(987.534369662764 546.4802506425954)"><path d="M272.2 -406.1C389.1 -348.5 545.2 -334.4 573.2 -264.3C601.2 -194.3 501 -68.3 477.1 65.6C453.2 199.5 505.5 341.4 470.8 441.3C436.2 541.3 314.6 599.3 189.5 627.9C64.5 656.6 -64 656 -164.1 605.4C-264.3 554.8 -336.2 454.2 -389.3 357.2C-442.3 260.2 -476.5 166.8 -526.9 53.8C-577.3 -59.2 -643.9 -191.8 -631.7 -317.6C-619.6 -443.4 -528.8 -562.4 -410.3 -619.4C-291.9 -676.3 -146 -671.1 -34.2 -618C77.7 -564.9 155.3 -463.7 272.2 -406.1" fill="#0c001e"></path></g></svg>