<svg id="visual" viewBox="0 0 3840 2160" width="3840" height="2160" xmlns="http://www.w3.org/2000/svg" xmlns:xlink="http://www.w3.org/1999/xlink" version="1.1"><rect x="0" y="0" width="3840" height="2160" fill="#892c01"></rect><path d="M0 1426L128 1398.2C256 1370.3 512 1314.7 768 1318C1024 1321.3 1280 1383.7 1536 1432.8C1792 1482 2048 1518 2304 1542.2C2560 1566.3 2816 1578.7 3072 1564.3C3328 1550 3584 1509 3712 1488.5L3840 1468L3840 2161L3712 2161C3584 2161 3328 2161 3072 2161C2816 2161 2560 2161 2304 2161C2048 2161 1792 2161 1536 2161C1280 2161 1024 2161 768 2161C512 2161 256 2161 128 2161L0 2161Z" fill="#652000"></path><path d="M0 1478L128 1517.3C256 1556.7 512 1635.3 768 1642C1024 1648.7 1280 1583.3 1536 1547.3C1792 1511.3 2048 1504.7 2304 1511.7C2560 1518.7 2816 1539.3 3072 1554.5C3328 1569.7 3584 1579.3 3712 1584.2L3840 1589L3840 2161L3712 2161C3584 2161 3328 2161 3072 2161C2816 2161 2560 2161 2304 2161C2048 2161 1792 2161 1536 2161C1280 2161 1024 2161 768 2161C512 2161 256 2161 128 2161L0 2161Z" fill="#5f0a17"></path><path d="M0 1593L128 1593.8C256 1594.7 512 1596.3 768 1631.7C1024 1667 1280 1736 1536 1754.2C1792 1772.3 2048 1739.7 2304 1740.3C2560 1741 2816 1775 3072 1776.8C3328 1778.7 3584 1748.3 3712 1733.2L3840 1718L3840 2161L3712 2161C3584 2161 3328 2161 3072 2161C2816 2161 2560 2161 2304 2161C2048 2161 1792 2161 1536 2161C1280 2161 1024 2161 768 2161C512 2161 256 2161 128 2161L0 2161Z" fill="#510025"></path><path d="M0 1763L128 1791.8C256 1820.7 512 1878.3 768 1880.8C1024 1883.3 1280 1830.7 1536 1813.8C1792 1797 2048 1816 2304 1810.8C2560 1805.7 2816 1776.3 3072 1776.8C3328 1777.3 3584 1807.7 3712 1822.8L3840 1838L3840 2161L3712 2161C3584 2161 3328 2161 3072 2161C2816 2161 2560 2161 2304 2161C2048 2161 1792 2161 1536 2161C1280 2161 1024 2161 768 2161C512 2161 256 2161 128 2161L0 2161Z" fill="#39002f"></path><path d="M0 1897L128 1925.5C256 1954 512 2011 768 2033.8C1024 2056.7 1280 2045.3 1536 2036.8C1792 2028.3 2048 2022.7 2304 2028C2560 2033.3 2816 2049.7 3072 2050.8C3328 2052 3584 2038 3712 2031L3840 2024L3840 2161L3712 2161C3584 2161 3328 2161 3072 2161C2816 2161 2560 2161 2304 2161C2048 2161 1792 2161 1536 2161C1280 2161 1024 2161 768 2161C512 2161 256 2161 128 2161L0 2161Z" fill="#160035"></path></svg>