<svg id="visual" viewBox="0 0 3840 2160" width="3840" height="2160" xmlns="http://www.w3.org/2000/svg" xmlns:xlink="http://www.w3.org/1999/xlink" version="1.1"><rect x="0" y="0" width="3840" height="2160" fill="#892c01"></rect><path d="M0 306L128 280.5C256 255 512 204 768 187.3C1024 170.7 1280 188.3 1536 188.2C1792 188 2048 170 2304 153.5C2560 137 2816 122 3072 145.3C3328 168.7 3584 230.3 3712 261.2L3840 292L3840 0L3712 0C3584 0 3328 0 3072 0C2816 0 2560 0 2304 0C2048 0 1792 0 1536 0C1280 0 1024 0 768 0C512 0 256 0 128 0L0 0Z" fill="#652000"></path><path d="M0 136L128 155.8C256 175.7 512 215.3 768 217.7C1024 220 1280 185 1536 160.5C1792 136 2048 122 2304 120.8C2560 119.7 2816 131.3 3072 140.2C3328 149 3584 155 3712 158L3840 161L3840 0L3712 0C3584 0 3328 0 3072 0C2816 0 2560 0 2304 0C2048 0 1792 0 1536 0C1280 0 1024 0 768 0C512 0 256 0 128 0L0 0Z" fill="#610e14"></path><path d="M0 121L128 114.8C256 108.7 512 96.3 768 90.2C1024 84 1280 84 1536 83.7C1792 83.3 2048 82.7 2304 99.3C2560 116 2816 150 3072 160.3C3328 170.7 3584 157.3 3712 150.7L3840 144L3840 0L3712 0C3584 0 3328 0 3072 0C2816 0 2560 0 2304 0C2048 0 1792 0 1536 0C1280 0 1024 0 768 0C512 0 256 0 128 0L0 0Z" fill="#580220"></path><path d="M0 62L128 67.3C256 72.7 512 83.3 768 83.2C1024 83 1280 72 1536 78.7C1792 85.3 2048 109.7 2304 117.2C2560 124.7 2816 115.3 3072 117.5C3328 119.7 3584 133.3 3712 140.2L3840 147L3840 0L3712 0C3584 0 3328 0 3072 0C2816 0 2560 0 2304 0C2048 0 1792 0 1536 0C1280 0 1024 0 768 0C512 0 256 0 128 0L0 0Z" fill="#49002a"></path><path d="M0 62L128 69.8C256 77.7 512 93.3 768 90.5C1024 87.7 1280 66.3 1536 66.7C1792 67 2048 89 2304 89.3C2560 89.7 2816 68.3 3072 66.2C3328 64 3584 81 3712 89.5L3840 98L3840 0L3712 0C3584 0 3328 0 3072 0C2816 0 2560 0 2304 0C2048 0 1792 0 1536 0C1280 0 1024 0 768 0C512 0 256 0 128 0L0 0Z" fill="#330031"></path><path d="M0 30L128 34.3C256 38.7 512 47.3 768 49.3C1024 51.3 1280 46.7 1536 48.3C1792 50 2048 58 2304 63.5C2560 69 2816 72 3072 66.2C3328 60.3 3584 45.7 3712 38.3L3840 31L3840 0L3712 0C3584 0 3328 0 3072 0C2816 0 2560 0 2304 0C2048 0 1792 0 1536 0C1280 0 1024 0 768 0C512 0 256 0 128 0L0 0Z" fill="#160035"></path></svg>