<svg id="visual" viewBox="0 0 2160 1440" width="900" height="600" xmlns="http://www.w3.org/2000/svg" xmlns:xlink="http://www.w3.org/1999/xlink" version="1.1"><rect x="0" y="0" width="2160" height="1440" fill="#892c01"></rect><path d="M0 973L51.5 983.3C103 993.7 206 1014.3 308.8 1040C411.7 1065.7 514.3 1096.3 617.2 1096C720 1095.7 823 1064.3 925.8 1070.8C1028.7 1077.3 1131.3 1121.7 1234.2 1119C1337 1116.3 1440 1066.7 1542.8 1058.5C1645.7 1050.3 1748.3 1083.7 1851.2 1107.3C1954 1131 2057 1145 2108.5 1152L2160 1159L2160 1441L2108.5 1441C2057 1441 1954 1441 1851.2 1441C1748.3 1441 1645.7 1441 1542.8 1441C1440 1441 1337 1441 1234.2 1441C1131.3 1441 1028.7 1441 925.8 1441C823 1441 720 1441 617.2 1441C514.3 1441 411.7 1441 308.8 1441C206 1441 103 1441 51.5 1441L0 1441Z" fill="#652107"></path><path d="M0 1197L51.5 1202.5C103 1208 206 1219 308.8 1207.5C411.7 1196 514.3 1162 617.2 1169.7C720 1177.3 823 1226.7 925.8 1223.8C1028.7 1221 1131.3 1166 1234.2 1143.7C1337 1121.3 1440 1131.7 1542.8 1157.2C1645.7 1182.7 1748.3 1223.3 1851.2 1228C1954 1232.7 2057 1201.3 2108.5 1185.7L2160 1170L2160 1441L2108.5 1441C2057 1441 1954 1441 1851.2 1441C1748.3 1441 1645.7 1441 1542.8 1441C1440 1441 1337 1441 1234.2 1441C1131.3 1441 1028.7 1441 925.8 1441C823 1441 720 1441 617.2 1441C514.3 1441 411.7 1441 308.8 1441C206 1441 103 1441 51.5 1441L0 1441Z" fill="#892c01"></path><path d="M0 1359L51.5 1357.3C103 1355.7 206 1352.3 308.8 1347.2C411.7 1342 514.3 1335 617.2 1333.2C720 1331.3 823 1334.7 925.8 1321.7C1028.7 1308.7 1131.3 1279.3 1234.2 1270.7C1337 1262 1440 1274 1542.8 1286.3C1645.7 1298.7 1748.3 1311.3 1851.2 1310.3C1954 1309.3 2057 1294.7 2108.5 1287.3L2160 1280L2160 1441L2108.5 1441C2057 1441 1954 1441 1851.2 1441C1748.3 1441 1645.7 1441 1542.8 1441C1440 1441 1337 1441 1234.2 1441C1131.3 1441 1028.7 1441 925.8 1441C823 1441 720 1441 617.2 1441C514.3 1441 411.7 1441 308.8 1441C206 1441 103 1441 51.5 1441L0 1441Z" fill="#b05127"></path></svg>