<svg id="visual" viewBox="0 0 3840 2160" width="3840" height="2160" xmlns="http://www.w3.org/2000/svg" xmlns:xlink="http://www.w3.org/1999/xlink" version="1.1"><rect x="0" y="0" width="3840" height="2160" fill="#892c01"></rect><path d="M0 1222L128 1263.7C256 1305.3 512 1388.7 768 1382C1024 1375.3 1280 1278.7 1536 1270.8C1792 1263 2048 1344 2304 1395.3C2560 1446.7 2816 1468.3 3072 1441.7C3328 1415 3584 1340 3712 1302.5L3840 1265L3840 2161L3712 2161C3584 2161 3328 2161 3072 2161C2816 2161 2560 2161 2304 2161C2048 2161 1792 2161 1536 2161C1280 2161 1024 2161 768 2161C512 2161 256 2161 128 2161L0 2161Z" fill="#652000"></path><path d="M0 1491L128 1463.5C256 1436 512 1381 768 1330.5C1024 1280 1280 1234 1536 1306.5C1792 1379 2048 1570 2304 1661.3C2560 1752.7 2816 1744.3 3072 1750.2C3328 1756 3584 1776 3712 1786L3840 1796L3840 2161L3712 2161C3584 2161 3328 2161 3072 2161C2816 2161 2560 2161 2304 2161C2048 2161 1792 2161 1536 2161C1280 2161 1024 2161 768 2161C512 2161 256 2161 128 2161L0 2161Z" fill="#610e14"></path><path d="M0 1800L128 1771.5C256 1743 512 1686 768 1640C1024 1594 1280 1559 1536 1540C1792 1521 2048 1518 2304 1559.5C2560 1601 2816 1687 3072 1659.7C3328 1632.3 3584 1491.7 3712 1421.3L3840 1351L3840 2161L3712 2161C3584 2161 3328 2161 3072 2161C2816 2161 2560 2161 2304 2161C2048 2161 1792 2161 1536 2161C1280 2161 1024 2161 768 2161C512 2161 256 2161 128 2161L0 2161Z" fill="#580220"></path><path d="M0 1874L128 1832.2C256 1790.3 512 1706.7 768 1701C1024 1695.3 1280 1767.7 1536 1820.2C1792 1872.7 2048 1905.3 2304 1897.8C2560 1890.3 2816 1842.7 3072 1774C3328 1705.3 3584 1615.7 3712 1570.8L3840 1526L3840 2161L3712 2161C3584 2161 3328 2161 3072 2161C2816 2161 2560 2161 2304 2161C2048 2161 1792 2161 1536 2161C1280 2161 1024 2161 768 2161C512 2161 256 2161 128 2161L0 2161Z" fill="#49002a"></path><path d="M0 1849L128 1869.5C256 1890 512 1931 768 1920.3C1024 1909.7 1280 1847.3 1536 1838.5C1792 1829.7 2048 1874.3 2304 1882.5C2560 1890.7 2816 1862.3 3072 1871.7C3328 1881 3584 1928 3712 1951.5L3840 1975L3840 2161L3712 2161C3584 2161 3328 2161 3072 2161C2816 2161 2560 2161 2304 2161C2048 2161 1792 2161 1536 2161C1280 2161 1024 2161 768 2161C512 2161 256 2161 128 2161L0 2161Z" fill="#330031"></path><path d="M0 2050L128 2039.2C256 2028.3 512 2006.7 768 1974.3C1024 1942 1280 1899 1536 1908.2C1792 1917.3 2048 1978.7 2304 1975.3C2560 1972 2816 1904 3072 1889.7C3328 1875.3 3584 1914.7 3712 1934.3L3840 1954L3840 2161L3712 2161C3584 2161 3328 2161 3072 2161C2816 2161 2560 2161 2304 2161C2048 2161 1792 2161 1536 2161C1280 2161 1024 2161 768 2161C512 2161 256 2161 128 2161L0 2161Z" fill="#160035"></path></svg>