<svg id="visual" viewBox="0 0 900 600" width="900" height="600" xmlns="http://www.w3.org/2000/svg" xmlns:xlink="http://www.w3.org/1999/xlink" version="1.1"><rect x="0" y="0" width="900" height="600" fill="#892c01"></rect><path d="M0 492L25 488.8C50 485.7 100 479.3 150 473.3C200 467.3 250 461.7 300 463.3C350 465 400 474 450 481.2C500 488.3 550 493.7 600 492.5C650 491.3 700 483.7 750 479.7C800 475.7 850 475.3 875 475.2L900 475L900 601L875 601C850 601 800 601 750 601C700 601 650 601 600 601C550 601 500 601 450 601C400 601 350 601 300 601C250 601 200 601 150 601C100 601 50 601 25 601L0 601Z" fill="#160035" stroke-linecap="round" stroke-linejoin="miter"></path></svg>