<svg id="visual" viewBox="0 0 900 600" width="900" height="600" xmlns="http://www.w3.org/2000/svg" xmlns:xlink="http://www.w3.org/1999/xlink" version="1.1"><rect x="0" y="0" width="900" height="600" fill="#892c01"></rect><path d="M0 199L50 210.7C100 222.3 200 245.7 300 240.7C400 235.7 500 202.3 600 194.3C700 186.3 800 203.7 850 212.3L900 221L900 0L850 0C800 0 700 0 600 0C500 0 400 0 300 0C200 0 100 0 50 0L0 0Z" fill="#963f1a"></path><path d="M0 199L50 197C100 195 200 191 300 179.8C400 168.7 500 150.3 600 138.7C700 127 800 122 850 119.5L900 117L900 0L850 0C800 0 700 0 600 0C500 0 400 0 300 0C200 0 100 0 50 0L0 0Z" fill="#652000"></path><path d="M0 58L50 63.3C100 68.7 200 79.3 300 82.5C400 85.7 500 81.3 600 86.3C700 91.3 800 105.7 850 112.8L900 120L900 0L850 0C800 0 700 0 600 0C500 0 400 0 300 0C200 0 100 0 50 0L0 0Z" fill="#4a1a02"></path></svg>