<svg id="visual" viewBox="0 0 900 600" width="900" height="600" xmlns="http://www.w3.org/2000/svg" xmlns:xlink="http://www.w3.org/1999/xlink" version="1.1"><rect x="0" y="0" width="900" height="600" fill="#892c01"></rect><g transform="translate(405.75169831543934 283.0117199593817)"><path d="M145.6 -204C204 -189 277.1 -174.5 329.5 -129.9C381.9 -85.3 413.7 -10.6 404.6 58.7C395.4 128 345.5 192 289.1 242.3C232.8 292.6 170.1 329.1 109.4 325.1C48.8 321.1 -9.7 276.7 -58.2 242.2C-106.7 207.8 -145.2 183.5 -197 153.9C-248.8 124.3 -314 89.4 -317.5 47.3C-321 5.2 -262.8 -44.1 -235.6 -109.2C-208.4 -174.2 -212 -254.9 -177.9 -281C-143.8 -307.1 -71.9 -278.6 -14.1 -256.5C43.6 -234.5 87.2 -219.1 145.6 -204" fill="#0c001e"></path></g></svg>